<svg width="44" xmlns="http://www.w3.org/2000/svg" height="44" fill="none"><g style="fill: rgb(0, 0, 0);"><path d="M23.962 19.085a9.167 9.167 0 0 0 0-10.67A6.232 6.232 0 0 1 27.5 7.333a6.417 6.417 0 0 1 0 12.834 6.232 6.232 0 0 1-3.538-1.082ZM10.083 13.75a6.417 6.417 0 1 1 12.834 0 6.417 6.417 0 0 1-12.834 0Zm3.667 0a2.75 2.75 0 1 0 5.5 0 2.75 2.75 0 0 0-5.5 0Zm15.583 17.417v3.666H3.667v-3.666s0-7.334 12.833-7.334 12.833 7.334 12.833 7.334Zm-3.666 0c-.257-1.43-2.439-3.667-9.167-3.667s-9.038 2.402-9.167 3.667m21.909-7.334A9.757 9.757 0 0 1 33 31.167v3.666h7.333v-3.666s0-6.655-11.091-7.334Z" style="fill: rgb(105, 17, 212); fill-opacity: 1;" class="fills"/><path d="m14.5 9.5-2 3.5 1.5 4.5 4.5.5 3-3.5v-3l-2.5-2h-4.5Zm0 16L6 29l.5 3 20 2v-4.5l-12-4Z" style="fill: rgb(105, 17, 212); fill-opacity: 0.3;" class="fills"/></g></svg>