<svg width="44" xmlns="http://www.w3.org/2000/svg" height="44" fill="none"><g style="fill: rgb(0, 0, 0);"><path d="M11.629 9.053a1.834 1.834 0 0 1 0 2.594c-5.729 5.73-5.729 15.018 0 20.748a1.834 1.834 0 1 1-2.592 2.592c-7.163-7.161-7.163-18.773 0-25.934a1.832 1.832 0 0 1 2.592 0Zm23.342 0c7.161 7.163 7.161 18.773 0 25.934a1.833 1.833 0 1 1-2.594-2.592c5.728-5.73 5.728-15.018 0-20.748a1.833 1.833 0 1 1 2.594-2.594Zm-17.903 5.269a1.832 1.832 0 0 1 0 2.592 7.187 7.187 0 0 0 0 10.164 1.834 1.834 0 0 1-2.594 2.593c-4.238-4.239-4.238-11.111 0-15.349a1.836 1.836 0 0 1 2.594 0Zm12.757 0c4.238 4.238 4.238 11.11 0 15.349a1.833 1.833 0 0 1-2.593-2.593 7.186 7.186 0 0 0 0-10.164 1.833 1.833 0 0 1 2.593-2.592ZM22.15 19.4a2.75 2.75 0 1 1 0 5.5 2.75 2.75 0 0 1 0-5.5Z" style="fill: rgb(105, 17, 212); fill-opacity: 1;" class="fills"/></g></svg>