<svg width="44" xmlns="http://www.w3.org/2000/svg" height="44" fill="none"><g style="fill: rgb(0, 0, 0);"><path d="M23.607 33.052a3.3 3.3 0 0 0 2.337-.97l10.155-10.179a9.9 9.9 0 0 0 0-14.003c-3.869-3.867-10.141-3.867-14.01 0L11.917 18.066a3.304 3.304 0 0 0-.967 2.333v11.004a1.65 1.65 0 0 0 1.651 1.649Zm5.495-18.142L6 38m25.577-11.545H17.551" fill="none" style="fill: none;" class="fills"/><g fill="none" stroke-linejoin="round" class="strokes"><path d="M23.607 33.052a3.3 3.3 0 0 0 2.337-.97l10.155-10.179a9.9 9.9 0 0 0 0-14.003c-3.869-3.867-10.141-3.867-14.01 0L11.917 18.066a3.304 3.304 0 0 0-.967 2.333v11.004a1.65 1.65 0 0 0 1.651 1.649Zm5.495-18.142L6 38m25.577-11.545H17.551" style="fill: none; stroke-width: 3.5; stroke: rgb(105, 17, 212); stroke-opacity: 1; stroke-linecap: round;" class="stroke-shape"/></g><path d="M22.742 7.71 11 19.452l1.806 12.645L25.452 33 39 17.645V8.613L31.774 5l-9.032 2.71Z" style="fill: rgb(105, 17, 212); fill-opacity: 0.3;" class="fills"/></g></svg>