<svg width="44" xmlns="http://www.w3.org/2000/svg" height="44" fill="none"><g style="fill: rgb(0, 0, 0);"><path d="M22 5.5a16.501 16.501 0 0 1 6.633 31.612l-4.02-10.27a5.5 5.5 0 1 0-5.224 0l-4.02 10.272A16.499 16.499 0 0 1 5.84 18.613 16.499 16.499 0 0 1 22 5.5Z" fill="none" style="fill: none;" class="fills"/><g fill="none" stroke-linejoin="round" class="strokes"><path d="M22 5.5a16.501 16.501 0 0 1 6.633 31.612l-4.02-10.27a5.5 5.5 0 1 0-5.224 0l-4.02 10.272A16.499 16.499 0 0 1 5.84 18.613 16.499 16.499 0 0 1 22 5.5Z" style="fill: none; stroke-width: 3; stroke: rgb(105, 17, 212); stroke-opacity: 1;" class="stroke-shape"/></g><path d="m15.5 36.5 4-9.5-3-3 .5-4.5 3-3 3.5-.5 2.5 2.5 2 4-3 4.5 4 9.5S47 27 34 11 6.5 15.5 6.5 15.5 3.5 26.5 9 32s6.5 4.5 6.5 4.5Z" style="fill: rgb(105, 17, 212); fill-opacity: 0.34;" class="fills"/></g></svg>