<?xml version="1.0" encoding="UTF-8" standalone="no"?>
<!-- Created with Inkscape (http://www.inkscape.org/) -->

<svg
   width="41.207027"
   height="19.467285"
   viewBox="0 0 41.207026 19.467284"
   version="1.1"
   id="svg1"
   xmlns="http://www.w3.org/2000/svg"
   xmlns:svg="http://www.w3.org/2000/svg">
  <defs
     id="defs1" />
  <g
     id="layer1"
     transform="translate(10788.727,-5004.0045)">
    <g
       id="g8"
       transform="matrix(0.05154952,0,0,0.05154952,-10240.692,4734.4161)"
       style="stroke-width:19.3988">
      <rect
         style="font-variation-settings:'wght' 600;fill:none;fill-opacity:1;stroke-width:193.988;stroke-linecap:round;stroke-linejoin:round"
         id="rect6"
         width="5075.3994"
         height="853.54822"
         x="-10797.287"
         y="4991.7378" />
      <g
         id="g7"
         transform="translate(0,1452.0682)"
         style="stroke-width:19.3988">
        <text
           xml:space="preserve"
           style="font-style:normal;font-variant:normal;font-weight:normal;font-stretch:normal;font-size:477.813px;line-height:1;font-family:Cantarell;-inkscape-font-specification:'Cantarell, @wght=600';font-variant-ligatures:normal;font-variant-caps:normal;font-variant-numeric:normal;font-variant-east-asian:normal;font-variation-settings:'wght' 600;text-align:center;letter-spacing:0px;word-spacing:0px;writing-mode:lr-tb;direction:ltr;text-anchor:middle;fill:#101010;fill-opacity:1;stroke:none;stroke-width:193.988;stroke-linecap:round;stroke-linejoin:round"
           x="-8717.4189"
           y="4128.3198"
           id="text6"><tspan
             id="tspan6"
             x="-8717.4189"
             y="4128.3198"
             style="font-style:normal;font-variant:normal;font-weight:normal;font-stretch:normal;font-size:477.813px;font-family:Cantarell;-inkscape-font-specification:'Cantarell, @wght=600';font-variant-ligatures:normal;font-variant-caps:normal;font-variant-numeric:normal;font-variant-east-asian:normal;font-variation-settings:'wght' 600;fill:#101010;fill-opacity:1;stroke-width:193.988">MOCKUP</tspan></text>
        <text
           xml:space="preserve"
           style="font-style:normal;font-variant:normal;font-weight:normal;font-stretch:normal;font-size:477.813px;line-height:1;font-family:Cantarell;-inkscape-font-specification:'Cantarell, @wght=300';font-variant-ligatures:normal;font-variant-caps:normal;font-variant-numeric:normal;font-variant-east-asian:normal;font-variation-settings:'wght' 300;text-align:center;letter-spacing:0px;word-spacing:0px;writing-mode:lr-tb;direction:ltr;text-anchor:middle;fill:#101010;fill-opacity:1;stroke:none;stroke-width:193.988;stroke-linecap:round;stroke-linejoin:round"
           x="-6803.3711"
           y="4128.8901"
           id="text7"><tspan
             id="tspan7"
             x="-6803.3711"
             y="4128.8901"
             style="fill:#101010;fill-opacity:1;stroke-width:193.988">MIRROR</tspan></text>
        <path
           d="m -9837.35,3777.6196 -34.0135,16.2921 c -2.0464,-1.6527 -4.5242,-2.6277 -7.2086,-2.6277 h -207.0509 c -7.033,0 -12.696,6.6304 -12.696,14.8662 v 96.4763 l 34.016,-16.2936 v 240.4044 c 0,8.2357 5.663,14.8661 12.695,14.8661 h 207.0507 c 7.0326,0 12.6949,-6.6304 12.6949,-14.8661 v -336.8809 c 0,-5.0924 -2.1726,-9.5598 -5.4876,-12.2368 z m -260.969,125.0069 -34.014,16.2937 v -112.77 c 0,-8.2358 -5.663,-14.8662 -12.695,-14.8662 h -207.052 c -7.032,0 -12.694,6.6304 -12.694,14.8662 v 224.1107 l 34.015,-16.2936 v 112.77 c 0,8.2355 5.662,14.8661 12.695,14.8661 h 207.051 c 7.033,0 12.694,-6.6306 12.694,-14.8661 z m -266.455,127.6344 -34.015,16.2937 v -240.4044 c 0,-8.2358 -5.662,-14.8662 -12.694,-14.8662 h -207.052 c -7.032,0 -12.694,6.6304 -12.694,14.8662 v 336.8808 c 0,5.0921 2.172,9.5598 5.487,12.2366 l 34.015,-16.2936 c 2.046,1.6522 4.522,2.6294 7.208,2.6294 h 207.05 c 7.032,0 12.695,-6.6306 12.695,-14.8661 z"
           style="fill:#6911d4;fill-opacity:1;stroke-width:1163.93"
           id="path7" />
      </g>
    </g>
  </g>
</svg>
