<?xml version="1.0" encoding="UTF-8" standalone="no"?>
<!-- Created with Inkscape (http://www.inkscape.org/) -->

<svg
   width="261.63379"
   height="44"
   viewBox="0 0 261.63378 43.999998"
   version="1.1"
   id="svg1"
   xmlns="http://www.w3.org/2000/svg"
   xmlns:svg="http://www.w3.org/2000/svg">
  <defs
     id="defs1" />
  <g
     id="layer1"
     transform="translate(10797.286,-4991.7378)">
    <g
       id="g8"
       transform="matrix(0.05154952,0,0,0.05154952,-10240.692,4734.4161)"
       style="stroke-width:19.3988">
      <g
         id="g7"
         transform="translate(0,1452.0682)"
         style="stroke-width:19.3988">
        <g
           id="g9">
          <rect
             style="font-variation-settings:'wght' 600;fill:none;fill-opacity:1;stroke-width:193.988;stroke-linecap:round;stroke-linejoin:round"
             id="rect6"
             width="5075.3994"
             height="853.54822"
             x="-10797.287"
             y="4991.7378"
             transform="translate(-0.0032978,-1452.0678)" />
          <path
             d="m -9682.6008,4128.3198 h 52.5595 v -256.5856 l -9.0785,4.7782 103.2076,200.6814 h 42.0476 l 100.8185,-200.6814 -5.7338,-3.8225 v 255.6299 h 52.5595 v -331.6022 h -53.0373 l -127.0982,248.9406 h 27.2353 l -129.4873,-248.9406 h -53.9929 z m 556.6518,4.3003 c 97.9516,0 163.8898,-69.2828 163.8898,-173.4461 0,-99.8629 -64.0269,-166.7567 -159.1117,-166.7567 -96.996,0 -161.5008,68.8051 -161.5008,172.4905 0,100.8185 62.5935,167.7123 156.7227,167.7123 z m 4.7781,-47.7813 c -63.5491,0 -105.1189,-49.6925 -105.1189,-125.6648 0,-71.1941 39.6585,-118.9754 100.3408,-118.9754 64.5047,0 107.5079,49.6925 107.5079,124.7092 0,72.1497 -41.0919,119.931 -102.7298,119.931 z m 370.783,48.2592 c 33.4469,0 69.2829,-7.6451 98.9073,-21.5016 l -12.4231,-39.6585 c -21.9794,8.6006 -50.1704,13.8566 -73.5832,13.8566 -75.0167,0 -122.798,-50.6482 -122.798,-128.5317 0,-74.061 43.481,-117.0642 116.5864,-117.0642 26.2797,0 56.3819,5.7337 79.3169,14.3344 l 15.2901,-41.5697 c -26.7576,-13.3788 -60.2045,-20.546 -92.6958,-20.546 -104.1632,0 -174.4017,69.2829 -174.4017,173.4461 0,100.3407 66.8938,167.2346 165.8011,167.2346 z m 349.7592,-4.7782 h 72.1497 l -151.4667,-183.4802 1.4334,12.4232 143.3439,-160.5452 h -66.416 l -138.5657,159.1117 z m -191.6031,0 h 55.4264 v -331.6022 h -55.4264 z m 424.7757,4.7782 c 81.706,0 135.221,-51.126 135.221,-128.5317 v -207.8487 h -53.0372 v 214.0602 c 0,47.3035 -28.191,75.0167 -75.4945,75.0167 -51.6038,0 -81.706,-31.0579 -81.706,-83.6173 v -205.4596 h -54.4707 v 210.2377 c 0,77.4057 50.1704,126.1427 129.4874,126.1427 z m 207.8485,-4.7782 h 54.4707 v -283.8209 h 50.6482 c 43.0031,0 72.1497,26.7575 72.1497,67.3716 0,38.7029 -23.8906,59.7267 -66.416,59.7267 h -76.4501 v 47.3034 h 66.416 c 79.317,0 132.3542,-45.3922 132.3542,-114.6751 0,-65.4603 -47.7813,-107.5079 -122.7979,-107.5079 h -110.3748 z"
             id="text6"
             style="font-size:477.813px;line-height:1;font-family:Cantarell;-inkscape-font-specification:'Cantarell, @wght=600';font-variation-settings:'wght' 600;text-align:center;letter-spacing:0px;word-spacing:0px;text-anchor:middle;fill:#101010;stroke-width:193.988;stroke-linecap:round;stroke-linejoin:round"
             aria-label="MOCKUP" />
          <path
             d="m -7646.4717,4128.8901 h 19.1125 v -307.7115 h -4.7781 l 128.0539,256.1077 h 16.7234 l 129.4873,-255.6299 h -4.3003 v 307.2337 h 19.1125 v -331.6022 h -21.0237 l -136.6546,270.92 h 11.4676 l -134.7433,-270.92 h -22.4572 z m 410.9194,0 h 20.0682 v -331.6022 h -20.0682 z m 127.5762,0 h 20.0681 v -314.4009 h 70.2385 c 59.2489,0 91.7401,27.2353 91.7401,77.8835 0,49.2147 -30.58,75.9723 -87.9176,75.9723 h -82.1838 v 16.7234 h 78.3613 c 70.7164,0 112.2861,-36.7916 112.2861,-96.996 0,-58.2932 -40.1363,-90.7845 -108.9414,-90.7845 h -93.6513 z m 198.2924,0 h 24.3684 l -89.8288,-155.767 h -22.4572 z m 99.3847,0 h 20.0682 v -314.4009 h 70.2385 c 59.2488,0 91.7401,27.2353 91.7401,77.8835 0,49.2147 -30.5801,75.9723 -87.9176,75.9723 h -82.1839 v 16.7234 h 78.3614 c 70.7163,0 112.286,-36.7916 112.286,-96.996 0,-58.2932 -40.1363,-90.7845 -108.9413,-90.7845 h -93.6514 z m 198.2924,0 h 24.3685 l -89.8289,-155.767 h -22.4572 z m 225.0496,4.3004 c 90.3066,0 150.511,-69.2829 150.511,-171.0571 0,-100.8185 -59.2488,-167.7124 -148.122,-167.7124 -90.3066,0 -150.0333,69.2829 -150.0333,170.5793 0,100.3407 58.771,168.1902 147.6443,168.1902 z m 2.389,-17.2013 c -77.8835,0 -129.9651,-62.5935 -129.9651,-153.8558 0,-89.351 51.126,-150.0333 127.5761,-150.0333 77.8835,0 129.9651,62.1157 129.9651,152.9002 0,90.3066 -50.6482,150.9889 -127.5761,150.9889 z m 233.6505,12.9009 h 20.0681 v -314.4009 h 70.2385 c 59.2488,0 91.7401,27.2353 91.7401,77.8835 0,49.2147 -30.58,75.9723 -87.9176,75.9723 h -82.1838 v 16.7234 h 78.3613 c 70.7164,0 112.2861,-36.7916 112.2861,-96.996 0,-58.2932 -40.1363,-90.7845 -108.9414,-90.7845 h -93.6513 z m 198.2924,0 h 24.3684 l -89.8288,-155.767 h -22.4572 z"
             id="text7"
             style="font-size:477.813px;line-height:1;font-family:Cantarell;-inkscape-font-specification:'Cantarell, @wght=300';font-variation-settings:'wght' 300;text-align:center;letter-spacing:0px;word-spacing:0px;text-anchor:middle;fill:#101010;stroke-width:193.988;stroke-linecap:round;stroke-linejoin:round"
             aria-label="MIRROR" />
          <path
             d="m -9837.35,3777.6196 -34.0135,16.2921 c -2.0464,-1.6527 -4.5242,-2.6277 -7.2086,-2.6277 h -207.0509 c -7.033,0 -12.696,6.6304 -12.696,14.8662 v 96.4763 l 34.016,-16.2936 v 240.4044 c 0,8.2357 5.663,14.8661 12.695,14.8661 h 207.0507 c 7.0326,0 12.6949,-6.6304 12.6949,-14.8661 v -336.8809 c 0,-5.0924 -2.1726,-9.5598 -5.4876,-12.2368 z m -260.969,125.0069 -34.014,16.2937 v -112.77 c 0,-8.2358 -5.663,-14.8662 -12.695,-14.8662 h -207.052 c -7.032,0 -12.694,6.6304 -12.694,14.8662 v 224.1107 l 34.015,-16.2936 v 112.77 c 0,8.2355 5.662,14.8661 12.695,14.8661 h 207.051 c 7.033,0 12.694,-6.6306 12.694,-14.8661 z m -266.455,127.6344 -34.015,16.2937 v -240.4044 c 0,-8.2358 -5.662,-14.8662 -12.694,-14.8662 h -207.052 c -7.032,0 -12.694,6.6304 -12.694,14.8662 v 336.8808 c 0,5.0921 2.172,9.5598 5.487,12.2366 l 34.015,-16.2936 c 2.046,1.6522 4.522,2.6294 7.208,2.6294 h 207.05 c 7.032,0 12.695,-6.6306 12.695,-14.8661 z"
             style="fill:#6911d4;fill-opacity:1;stroke-width:1163.93"
             id="path7" />
        </g>
      </g>
    </g>
  </g>
</svg>
